<?xml version="1.0" encoding="utf-8"?>
<!-- Generator: Adobe Illustrator 19.0.0, SVG Export Plug-In . SVG Version: 6.00 Build 0)  -->
<svg version="1.1" xmlns="http://www.w3.org/2000/svg" xmlns:xlink="http://www.w3.org/1999/xlink" x="0px" y="0px"
	 viewBox="0 0 500 500" style="enable-background:new 0 0 500 500;" xml:space="preserve">
<style type="text/css">
	.st0{display:none;}
	.st1{display:inline;}
	.st2{fill:#002D4F;}
	.st3{font-family:'Poppins-SemiBold';}
	.st4{font-size:48.5224px;}
	.st5{fill:#EA3560;}
	.st6{fill:#1C507A;}
	.st7{font-family:'Poppins-Medium';}
	.st8{font-size:17.4391px;}
	.st9{fill:#C7E7FF;}
	.st10{fill:#F4B392;}
	.st11{fill:#DD8F6C;}
	.st12{fill:#FFFFFF;}
	.st13{fill:#3382D1;}
</style>
<g id="BACKGROUND" class="st0">
</g>
<g id="OBJECTS" class="st0">
	<g class="st1">
		<g>
			<text transform="matrix(1 0 0 1 112.3656 379.4259)"><tspan x="0" y="0" class="st2 st3 st4">nerd </tspan><tspan x="138.9" y="0" class="st5 st3 st4">logo</tspan></text>
			<g>
				<text transform="matrix(1 0 0 1 173.2562 405.6158)" class="st6 st7 st8">Slogan goes here</text>
			</g>
		</g>
		<g>
			<g>
				<path class="st9" d="M366.8,328.6c13.5-21.5,21.3-46.9,21.3-74.1c0-77-62.4-139.4-139.4-139.4s-139.4,62.4-139.4,139.4
					c0,27.2,7.8,52.6,21.3,74.1H366.8z"/>
				<circle class="st9" cx="354.5" cy="137.8" r="12.4"/>
				<circle class="st9" cx="103.2" cy="287.8" r="4.6"/>
				<circle class="st9" cx="387.7" cy="300.4" r="4.6"/>
				<circle class="st9" cx="104.6" cy="189.5" r="7.6"/>
				<circle class="st9" cx="132.6" cy="160.7" r="4.6"/>
				<circle class="st9" cx="368.9" cy="162" r="6.8"/>
				<circle class="st9" cx="103.2" cy="312" r="12"/>
			</g>
			<g>
				<g>
					<circle class="st10" cx="202.7" cy="183.2" r="13.2"/>
					<circle class="st10" cx="296" cy="183.2" r="13.2"/>
					<path class="st10" d="M249.4,244.4L249.4,244.4c-23.8,0-43.2-19.3-43.2-43.2v-76h84.6c0.9,0,1.7,0.8,1.7,1.7v74.3
						C292.5,225.1,273.2,244.4,249.4,244.4z"/>
					<path class="st2" d="M206.4,186.7c0,0-27.7-42.3-2.2-56.8c0.3-41.2,87.4-21.1,90.2-41.2c26.3,38-2,59.1-2,59.1
						c-15.6,11.9-56.8,17-85.8,0L206.4,186.7z"/>
					<path class="st2" d="M283.2,116.4c6.6,4.1,11.2,8.5,11.6,13.5c25.5,14.5-2.2,56.8-2.2,56.8l-0.2-38.8
						C292.4,147.8,282.5,128.3,283.2,116.4z"/>
					<g>
						<circle class="st2" cx="229.8" cy="188.7" r="2.9"/>
						<circle class="st2" cx="269" cy="188.7" r="2.9"/>
						<ellipse class="st2" cx="229.8" cy="178.2" rx="6.9" ry="2.1"/>
						<ellipse class="st2" cx="269" cy="178.2" rx="6.9" ry="2.1"/>
						<path class="st11" d="M254.5,191.3c-1.1-2.3-3.1-3.7-5.4-3.6c-2.1,0.1-3.9,1.4-4.8,3.6l-0.9-0.4c1.1-2.6,3.2-4.1,5.7-4.2
							c2.6-0.1,5,1.5,6.3,4.2L254.5,191.3z"/>
						<g>
							<path class="st12" d="M217.8,207.5c-13.7,0-24.9-11.2-24.9-24.9c0-13.7,11.2-24.9,24.9-24.9c13.7,0,24.9,11.2,24.9,24.9
								C242.7,196.3,231.6,207.5,217.8,207.5z M217.8,159.7c-12.6,0-22.9,10.3-22.9,22.9c0,12.6,10.3,22.9,22.9,22.9
								c12.6,0,22.9-10.3,22.9-22.9C240.7,169.9,230.5,159.7,217.8,159.7z"/>
							<path class="st12" d="M280.9,207.5c-13.7,0-24.9-11.2-24.9-24.9c0-13.7,11.2-24.9,24.9-24.9s24.9,11.2,24.9,24.9
								C305.8,196.3,294.6,207.5,280.9,207.5z M280.9,159.7c-12.6,0-22.9,10.3-22.9,22.9c0,12.6,10.3,22.9,22.9,22.9
								c12.6,0,22.9-10.3,22.9-22.9C303.8,169.9,293.5,159.7,280.9,159.7z"/>
							<path class="st12" d="M256,181.3c-0.5-3.3-3.3-5.7-6.6-5.7s-6.1,2.5-6.6,5.7l-2-0.3c0.6-4.2,4.3-7.4,8.6-7.4s8,3.2,8.6,7.4
								L256,181.3z"/>
						</g>
					</g>
				</g>
				<g>
					<path class="st13" d="M333.4,320.8H166.3c-4,0-7.3-3.1-7.6-7.1l-8.8-110.2c-0.4-4.5,3.2-8.3,7.6-8.3h184.8c4.5,0,8,3.8,7.6,8.3
						l-8.8,110.2C340.8,317.8,337.4,320.8,333.4,320.8z"/>
					<path class="st2" d="M349.7,207.8l-1-0.1c0.2-2-0.5-4-1.9-5.5c-1.4-1.5-3.2-2.3-5.2-2.3H158.2c-2,0-3.8,0.8-5.2,2.3
						c-1.4,1.5-2,3.5-1.9,5.5l-1,0.1c-0.2-2.3,0.6-4.5,2.1-6.2c1.5-1.7,3.7-2.6,5.9-2.6h183.4c2.3,0,4.4,0.9,5.9,2.6
						C349.1,203.2,349.9,205.5,349.7,207.8z"/>
					<path class="st13" d="M156.5,320.8c0.1,4.3,3.6,7.7,7.8,7.7h171.1c4.2,0,7.6-3.4,7.8-7.7H156.5z"/>
					<rect x="165.7" y="320.3" class="st2" width="168.4" height="1"/>
					<path class="st2" d="M258.4,265.3h-17c-2.2,0-4-1.8-4-4v-0.5c0-2.2,1.8-4,4-4h17c2.2,0,4,1.8,4,4v0.5
						C262.3,263.5,260.6,265.3,258.4,265.3z M241.4,257.9c-1.6,0-3,1.3-3,3v0.5c0,1.6,1.3,3,3,3h17c1.6,0,3-1.3,3-3v-0.5
						c0-1.6-1.3-3-3-3H241.4z"/>
				</g>
				<g>
					<polygon class="st12" points="352.5,328.2 321.6,328.2 318.9,279.2 355.1,279.2 					"/>
					<polygon class="st2" points="354.2,316.1 355.5,291.4 318.5,291.4 319.8,316.1 					"/>
					<polygon class="st2" points="318.6,279 317.6,283.1 356.4,283.1 355.4,279 					"/>
					<polygon class="st2" points="323.7,273.5 323,279.8 351,279.8 350.3,273.5 					"/>
					<circle class="st6" cx="337" cy="303.2" r="7.1"/>
					<rect x="323.1" y="278.5" class="st6" width="27.8" height="1"/>
				</g>
				<g>
					<path class="st12" d="M154.8,314.4v9.2c0,1,0.8,1.9,1.9,1.9h55.7v-12.9h-55.7C155.7,312.5,154.8,313.4,154.8,314.4z"/>
					<path class="st5" d="M156.8,325.5c-1.1,0-2-0.8-2-1.9v-9.2c0-1,0.9-1.9,2-1.9h56.1v-0.5v-0.8v-1.4h-87.5
						c-1.5,0-2.8,1.2-2.8,2.8v12.7c0,1.5,1.2,2.8,2.8,2.8h87.5v-1.4V326v-0.5H156.8z"/>
					<path class="st2" d="M156.1,328.1c-2.4,0-4.3-1.9-4.3-4.2v-10c0-2.3,1.9-4.2,4.3-4.2v1c-1.8,0-3.3,1.4-3.3,3.2v10
						c0,1.7,1.5,3.2,3.3,3.2V328.1z"/>
					<rect x="160.5" y="315.3" class="st2" width="51.9" height="1"/>
					<rect x="165.7" y="318.5" class="st2" width="26.4" height="1"/>
					<rect x="154.8" y="321.7" class="st2" width="43.6" height="1"/>
				</g>
				<rect x="114.8" y="328.1" class="st2" width="269.9" height="1"/>
			</g>
		</g>
	</g>
</g>
<g id="OBJECTS_copy">
	<g>
		<g>
			<g>
				<path class="st9" d="M442.7,434.4c20.8-33.1,32.8-72.2,32.8-114.1c0-118.6-96.1-214.7-214.7-214.7
					c-118.6,0-214.7,96.1-214.7,214.7c0,41.9,12,81.1,32.8,114.1H442.7z"/>
				<circle class="st9" cx="423.7" cy="140.5" r="19.1"/>
				<circle class="st9" cx="36.5" cy="371.5" r="7.1"/>
				<circle class="st9" cx="474.8" cy="390.9" r="7.1"/>
				<circle class="st9" cx="38.8" cy="220.1" r="11.7"/>
				<circle class="st9" cx="81.8" cy="175.7" r="7.1"/>
				<circle class="st9" cx="445.8" cy="177.7" r="10.4"/>
				<circle class="st9" cx="36.5" cy="408.8" r="18.5"/>
			</g>
			<g>
				<g>
					<circle class="st10" cx="189.8" cy="210.4" r="20.4"/>
					<circle class="st10" cx="333.6" cy="210.4" r="20.4"/>
					<path class="st10" d="M285,304.7h-46.7c-23.8,0-43.2-19.3-43.2-43.2V121.2h131.3c0.9,0,1.7,0.8,1.7,1.7v138.7
						C328.2,285.4,308.9,304.7,285,304.7z"/>
					<path class="st2" d="M195.5,215.8c0,0-42.7-65.1-3.4-87.5c0.4-63.4,134.7-32.5,138.9-63.4c40.5,58.5-3.1,91.1-3.1,91.1
						c-24,18.4-87.6,26.2-132.2,0L195.5,215.8z"/>
					<path class="st2" d="M313.8,107.6c10.2,6.3,17.2,13.1,17.9,20.8c39.3,22.3-3.4,87.5-3.4,87.5l-0.4-59.8
						C328,155.9,312.8,125.8,313.8,107.6z"/>
					<g>
						<circle class="st2" cx="231.5" cy="218.9" r="4.4"/>
						<circle class="st2" cx="292" cy="218.9" r="4.4"/>
						<ellipse class="st2" cx="231.5" cy="202.8" rx="10.6" ry="3.2"/>
						<ellipse class="st2" cx="292" cy="202.8" rx="10.6" ry="3.2"/>
						<path class="st11" d="M269.6,222.9c-1.8-3.6-4.8-5.7-8.2-5.6c-3.2,0.1-6,2.2-7.4,5.5l-1.4-0.6c1.7-4,4.9-6.4,8.8-6.5
							c4.1-0.1,7.6,2.3,9.7,6.4L269.6,222.9z"/>
						<g>
							<path class="st12" d="M213.2,247.8c-21.2,0-38.4-17.2-38.4-38.4c0-21.2,17.2-38.4,38.4-38.4c21.2,0,38.4,17.2,38.4,38.4
								C251.5,230.6,234.3,247.8,213.2,247.8z M213.2,174.2c-19.5,0-35.3,15.8-35.3,35.3c0,19.5,15.8,35.3,35.3,35.3
								c19.5,0,35.3-15.8,35.3-35.3C248.5,190,232.6,174.2,213.2,174.2z"/>
							<path class="st12" d="M310.3,247.8c-21.2,0-38.4-17.2-38.4-38.4c0-21.2,17.2-38.4,38.4-38.4c21.2,0,38.4,17.2,38.4,38.4
								C348.6,230.6,331.4,247.8,310.3,247.8z M310.3,174.2c-19.5,0-35.3,15.8-35.3,35.3c0,19.5,15.8,35.3,35.3,35.3
								c19.5,0,35.3-15.8,35.3-35.3C345.5,190,329.7,174.2,310.3,174.2z"/>
							<path class="st12" d="M271.9,207.5c-0.7-5-5.1-8.8-10.2-8.8c-5.1,0-9.4,3.8-10.2,8.8l-3-0.4c0.9-6.5,6.6-11.4,13.2-11.4
								c6.6,0,12.3,4.9,13.2,11.4L271.9,207.5z"/>
						</g>
					</g>
				</g>
				<g>
					<path class="st13" d="M391.2,422.4H133.8c-6.2,0-11.3-4.7-11.8-10.9l-13.6-169.8c-0.6-6.9,4.9-12.8,11.8-12.8h284.7
						c6.9,0,12.3,5.9,11.8,12.8L403,411.6C402.5,417.7,397.4,422.4,391.2,422.4z"/>
					<path class="st2" d="M416.2,248.2l-1.5-0.1c0.2-3.1-0.8-6.2-2.9-8.4c-2.1-2.3-4.9-3.5-8-3.5H121.3c-3.1,0-5.9,1.2-8,3.5
						c-2.1,2.3-3.1,5.3-2.9,8.4l-1.5,0.1c-0.3-3.5,0.9-7,3.3-9.6c2.4-2.6,5.6-4,9.1-4h282.5c3.5,0,6.7,1.4,9.1,4
						C415.3,241.2,416.5,244.7,416.2,248.2z"/>
					<path class="st13" d="M118.7,422.4c0.2,6.6,5.5,11.9,12,11.9h263.6c6.5,0,11.8-5.3,12-11.9H118.7z"/>
					<rect x="132.8" y="421.7" class="st2" width="259.4" height="1.5"/>
					<path class="st2" d="M275.6,336.9h-26.2c-3.4,0-6.1-2.7-6.1-6.1V330c0-3.4,2.7-6.1,6.1-6.1h26.2c3.4,0,6.1,2.7,6.1,6.1v0.8
						C281.7,334.1,279,336.9,275.6,336.9z M249.4,325.4c-2.5,0-4.6,2.1-4.6,4.6v0.8c0,2.5,2.1,4.6,4.6,4.6h26.2
						c2.5,0,4.6-2.1,4.6-4.6V330c0-2.5-2.1-4.6-4.6-4.6H249.4z"/>
				</g>
				<g>
					<polygon class="st12" points="420.5,433.8 372.9,433.8 368.9,358.3 424.6,358.3 					"/>
					<polygon class="st2" points="423.3,415.1 425.3,377 368.2,377 370.2,415.1 					"/>
					<polygon class="st2" points="368.4,357.9 366.9,364.3 426.6,364.3 425.1,357.9 					"/>
					<polygon class="st2" points="376.3,349.5 375.2,359.2 418.3,359.2 417.2,349.5 					"/>
					<circle class="st6" cx="396.7" cy="395.2" r="10.9"/>
					<rect x="375.3" y="357.2" class="st6" width="42.8" height="1.5"/>
				</g>
				<g>
					<path class="st12" d="M116.1,412.5v14.1c0,1.6,1.3,2.9,2.9,2.9h85.8v-19.9H119C117.4,409.6,116.1,410.9,116.1,412.5z"/>
					<path class="st5" d="M119.1,429.6c-1.7,0-3-1.3-3-2.9v-14.1c0-1.6,1.4-2.9,3-2.9h86.4v-0.7v-1.2v-2.2H70.7
						c-2.4,0-4.3,1.9-4.3,4.3v19.5c0,2.4,1.9,4.3,4.3,4.3h134.8v-2.2v-1.2v-0.7H119.1z"/>
					<path class="st2" d="M118,433.7c-3.6,0-6.6-2.9-6.6-6.4v-15.3c0-3.5,3-6.4,6.6-6.4v1.5c-2.8,0-5,2.2-5,4.9v15.3
						c0,2.7,2.3,4.9,5,4.9V433.7z"/>
					<rect x="124.8" y="413.8" class="st2" width="80" height="1.5"/>
					<rect x="132.8" y="418.8" class="st2" width="40.6" height="1.5"/>
					<rect x="116.1" y="423.8" class="st2" width="67.1" height="1.5"/>
				</g>
				<rect x="54.4" y="433.6" class="st2" width="415.7" height="1.5"/>
			</g>
		</g>
	</g>
</g>
</svg>
